<?xml version="1.0" encoding="utf-8"?>
<!-- Generator: Adobe Illustrator 27.5.0, SVG Export Plug-In . SVG Version: 6.00 Build 0)  -->
<svg version="1.1" xmlns="http://www.w3.org/2000/svg" xmlns:xlink="http://www.w3.org/1999/xlink" x="0px" y="0px"
	 viewBox="0 0 500 500" style="enable-background:new 0 0 500 500;" xml:space="preserve">
<g id="BACKGROUND">
	<g>
		<g>
			<rect style="fill:#F5F6F6;" width="500" height="500"/>
		</g>
	</g>
</g>
<g id="OBJECTS">
	<g>
		<g>
			<g>
				<path style="fill:#017DC0;" d="M367.471,158.657v26.325c0,0.451-0.013,0.903-0.038,1.354
					c-0.347,6.235-2.904,12.272-7.217,16.803c-4.221,4.434-10.404,7.699-16.588,8.043c-0.025,0-0.063,0.012-0.088,0.012
					c-0.351,0.038-0.69,0.063-1.04,0.075c-0.451,0.025-0.903,0.038-1.354,0.038H251.78c-3.761,0-7.158,1.517-9.615,3.974
					c-2.469,2.469-3.986,5.867-3.986,9.615V341.35c0,7.27,2.946,13.852,7.709,18.615c4.764,4.764,11.345,7.71,18.615,7.71h-26.325
					c-0.915,0-1.805-0.05-2.695-0.138c-1.567-0.163-3.084-0.451-4.563-0.877c-0.276-0.063-0.551-0.15-0.827-0.251
					c-0.075-0.025-0.138-0.05-0.213-0.075c-0.313-0.088-0.627-0.201-0.94-0.326c-0.339-0.125-0.664-0.251-0.99-0.389
					c-4.776-2.022-9.257-5.283-11.923-9.746c-4.305-7.206-4.172-19.045-4.172-28.357c0-9.303,0-18.606,0-27.909
					c0-11.26,0-22.52,0-33.78c0-10.391,0-20.783,0-31.174c0-6.697,0-13.393,0-20.09c0-1.085,0-2.171,0-3.256
					c0-8.203,4.928-17.749,12.196-22.076c8.691-5.174,19.405-4.249,29.101-4.249c9.522,0,19.045,0,28.567,0
					c18.094,0,36.188,0,54.282,0c1.715,0,3.431,0,5.146,0c7.271,0,13.852-2.946,18.615-7.709
					C364.525,172.508,367.471,165.915,367.471,158.657z"/>
				<path style="fill:#00B5E8;" d="M317.153,224.894c-7.271,0-13.852,2.946-18.615,7.71c-4.764,4.763-7.709,11.345-7.709,18.615
					c0,0,0,90.131,0,90.156c0,0.439-0.013,0.878-0.038,1.304c0,0,0,0.1,0,0.101c-0.223,6.024-2.871,12.02-6.938,16.427
					c-4.477,4.852-10.757,7.873-17.331,8.393c-0.301,0.025-0.614,0.038-0.915,0.063h-0.288c-0.138,0-0.263,0.013-0.401,0.013h-0.414
					c-7.271,0-13.852-2.946-18.615-7.71c-4.764-4.763-7.709-11.345-7.709-18.615v-13.589c0,3.748,1.517,7.145,3.986,9.615
					c2.357,2.357,5.591,3.848,9.176,3.961c-0.15,0.013-0.288,0.013-0.439,0.013h0.878c-0.063,0-0.113,0-0.176-0.013
					c3.485-0.176,6.606-1.655,8.913-3.961c2.469-2.47,3.986-5.867,3.986-9.615v-76.542c0-7.258,2.946-13.852,7.709-18.615
					c4.763-4.764,11.345-7.71,18.615-7.71H317.153z"/>
				<path style="fill:#FFFFFF;" d="M317.15,224.89c-7.27,0-13.85,2.95-18.61,7.71c-4.77,4.77-7.71,11.35-7.71,18.62
					c0,0,0,90.13,0,90.15c0,0.44-0.01,0.88-0.04,1.31v0.1c-0.22,6.02-2.87,12.02-6.94,16.43c-4.47,4.85-10.75,7.87-17.33,8.39
					c-0.3,0.02-0.61,0.04-0.91,0.06h-0.29c-0.14,0-0.26,0.01-0.4,0.01h-0.42c-0.53,0-1.06-0.02-1.58-0.05
					c0.12,0,0.23-0.01,0.35-0.02c6.58-0.52,12.86-3.56,17.33-8.45c4.07-4.43,6.72-10.46,6.94-16.52v-0.1
					c0.03-0.43,0.04-0.88,0.04-1.32c0-0.02,0-90.7,0-90.7c0-7.32,2.94-13.94,7.71-18.73c3.24-3.27,7.32-5.68,11.89-6.89H317.15z"/>
				<path style="fill:#00B5E8;" d="M367.476,158.287c0.1,7.396-2.871,14.14-7.709,18.979c-4.763,4.764-11.345,7.709-18.615,7.709
					H327.55c3.761,0,7.158-1.529,9.615-3.986c2.319-2.307,3.798-5.441,3.974-8.913c0.012,0.063,0.012,0.113,0.012,0.163v-0.865
					c0,0.151,0,0.288-0.012,0.439c-0.1-3.573-1.592-6.807-3.974-9.189c-2.457-2.457-5.854-3.974-9.615-3.974H172.498
					c-3.761,0-7.158,1.517-9.615,3.974c-2.447,2.447-3.68,5.939-4.024,9.301c0-0.15-0.012-0.288-0.012-0.439v0.84
					c0.15,1.103,0.263,2.206,0.627,3.272c1.842,5.4,7.088,9.255,12.825,9.499c6.426,0.462,12.445,3.061,17.022,7.637
					c4.738,4.738,7.684,11.294,7.709,18.527v26.362c0-7.271-2.946-13.852-7.709-18.615c-4.764-4.764-11.345-7.709-18.615-7.709
					h-11.809c-0.451,0-0.902-0.013-1.354-0.038c-12.407-0.436-22.865-10.196-24.682-22.388c-0.526-3.385-0.288-6.957-0.288-10.379
					V158.65c0-2.131,0.251-4.212,0.74-6.193c0.05-0.201,0.1-0.401,0.15-0.602c2.984-11.244,13.238-19.53,25.435-19.53h181.527
					C354.94,132.326,367.275,143.771,367.476,158.287z"/>
				<g>
					<path style="fill:#FFFFFF;" d="M189.319,192.73c4.74,4.74,7.69,11.3,7.71,18.53v26.36c0-5.12-1.46-9.9-4-13.94v-12.42
						c-0.02-7.23-2.97-13.79-7.71-18.53c-4.57-4.57-10.81-5.1-17.24-5.56c-9.11-0.66-15.26-11.05-12.3-19.46
						c0.66-1.89,1.68-3.66,3.1-5.09c2.46-2.45,5.86-3.97,9.62-3.97h4c-3.76,0-7.16,1.52-9.62,3.97c-2.44,2.45-3.68,5.94-4.02,9.31
						c0-0.15-0.01-0.29-0.01-0.44v0.84c0.15,1.1,0.26,2.2,0.63,3.27c1.84,5.4,7.08,9.25,12.82,9.5
						C178.729,185.56,184.749,188.16,189.319,192.73z"/>
					<path style="fill:#FFFFFF;" d="M367.479,158.29c0.1,7.39-2.87,14.14-7.71,18.98c-4.77,4.76-11.35,7.71-18.62,7.71h-4
						c7.27,0,13.85-2.95,18.62-7.71c4.84-4.84,7.81-11.59,7.71-18.98c-0.2-14.52-12.54-23.17-27.05-23.17h-181.53
						c-3.73,0-7.28,0.51-10.49,1.55c4.15-2.74,9.13-4.34,14.49-4.34h181.53C354.939,132.33,367.279,143.77,367.479,158.29z"/>
				</g>
			</g>
			<path style="opacity:0.5;fill:#1F1E21;" d="M245.89,359.96c4.76,4.77,11.34,7.71,18.62,7.71h-12.34
				c-2.33-1.22-4.44-2.8-6.28-4.64c-4.76-4.77-7.71-11.35-7.71-18.62v-3.06C238.18,348.62,241.13,355.2,245.89,359.96z"/>
			<path style="opacity:0.5;fill:#1F1E21;" d="M367.47,158.66v3.06c0,7.26-2.94,13.85-7.71,18.61c-4.76,4.77-11.34,7.71-18.61,7.71
				h-88c-9.69,0-20.41-0.92-29.1,4.25c-7.27,4.33-12.19,13.88-12.19,22.08v-3.06c0-8.21,4.92-17.75,12.19-22.08
				c8.69-5.17,19.41-4.25,29.1-4.25h88c7.27,0,13.85-2.94,18.61-7.71C364.53,172.51,367.47,165.91,367.47,158.66z"/>
		</g>
	</g>
</g>
<g id="TEXTS">
	<g>
		<g>
			<g>
				<g>
					<g>
						<g>
							<g>
								<g>
									<g>
										<g>
											<g>
												<g>
													<g>
														<g>
															<g>
																<g>
																	<g>
																		<g>
																			<g>
																				
																					<text transform="matrix(1 0 0 1 133.3928 426.0923)" style="fill:#00B5E8; font-family:'Montserrat-Bold'; font-size:24.15px; letter-spacing:1;">COMPANY NAME</text>
																			</g>
																			<g>
																				
																					<text transform="matrix(1 0 0 1 199.3899 442.3112)" style="fill:#017DC0; font-family:'Montserrat-SemiBold'; font-size:13.0845px;">YOUR TAGLINE</text>
																			</g>
																		</g>
																	</g>
																</g>
															</g>
														</g>
													</g>
												</g>
											</g>
										</g>
									</g>
								</g>
							</g>
						</g>
					</g>
				</g>
			</g>
		</g>
	</g>
</g>
</svg>
